<?xml version="1.0" encoding="UTF-8"?>
<!DOCTYPE svg PUBLIC "-//W3C//DTD SVG 1.1//EN" "http://www.w3.org/Graphics/SVG/1.1/DTD/svg11.dtd">
<svg xmlns="http://www.w3.org/2000/svg" version="1.1" width="848px" height="471px" style="shape-rendering:geometricPrecision; text-rendering:geometricPrecision; image-rendering:optimizeQuality; fill-rule:evenodd; clip-rule:evenodd" xmlns:xlink="http://www.w3.org/1999/xlink">
<g><path style="opacity:1" fill="#fefefe" d="M -0.5,-0.5 C 282.167,-0.5 564.833,-0.5 847.5,-0.5C 847.5,156.5 847.5,313.5 847.5,470.5C 564.833,470.5 282.167,470.5 -0.5,470.5C -0.5,313.5 -0.5,156.5 -0.5,-0.5 Z"/></g>
<g><path style="opacity:1" fill="#ea4f33" d="M 376.5,79.5 C 376.5,79.1667 376.5,78.8333 376.5,78.5C 379.614,76.6092 382.948,75.2759 386.5,74.5C 387.617,65.045 392.95,59.3783 402.5,57.5C 400.578,64.5967 396.245,69.7633 389.5,73C 394.519,73.1176 399.185,74.4509 403.5,77C 405.607,78.2635 406.607,80.0968 406.5,82.5C 398.596,83.5416 391.93,81.2083 386.5,75.5C 383.177,77.0479 379.843,78.3812 376.5,79.5 Z"/></g>
<g><path style="opacity:1" fill="#ea5034" d="M 444.5,56.5 C 454.183,58.8499 460.183,64.8499 462.5,74.5C 464.167,75.3333 465.833,76.1667 467.5,77C 465.331,77.4294 463.331,76.9294 461.5,75.5C 455.472,81.0362 448.472,83.0362 440.5,81.5C 444.857,75.3951 450.857,72.5618 458.5,73C 451.466,69.4689 446.799,63.9689 444.5,56.5 Z"/></g>
<g><path style="opacity:1" fill="#e94e31" d="M 482.5,86.5 C 481.305,86.3225 480.138,85.9891 479,85.5C 472.755,88.5376 466.255,89.2043 459.5,87.5C 458.068,87.2668 457.568,86.6001 458,85.5C 462.166,81.9729 466.999,80.6395 472.5,81.5C 473.849,82.7965 475.182,82.6298 476.5,81C 475.295,79.6244 473.962,78.4577 472.5,77.5C 469.412,73.3218 467.412,68.6552 466.5,63.5C 473.055,65.5522 477.555,69.8855 480,76.5C 480.026,80.1391 480.86,83.4725 482.5,86.5 Z"/></g>
<g><path style="opacity:1" fill="#e94e31" d="M 376.5,76.5 C 375.038,77.4577 373.705,78.6244 372.5,80C 374.301,80.3173 374.634,80.984 373.5,82C 374.437,82.6917 375.103,82.525 375.5,81.5C 380.951,80.779 385.785,82.1123 390,85.5C 390.688,86.3317 390.521,86.9984 389.5,87.5C 382.312,89.5411 375.645,88.5411 369.5,84.5C 366.025,86.8076 362.692,89.3076 359.5,92C 362.79,91.6315 366.123,91.6315 369.5,92C 377.385,93.897 377.385,95.897 369.5,98C 364.625,98.7528 359.792,98.5862 355,97.5C 352.348,99.3198 349.848,101.32 347.5,103.5C 348.882,100.606 350.882,98.1057 353.5,96C 351.077,91.9457 350.91,87.7791 353,83.5C 354.907,79.5897 357.573,76.2564 361,73.5C 361.667,76.5 361.667,79.5 361,82.5C 359.646,85.5046 358.646,88.5046 358,91.5C 361.333,88.8333 364.667,86.1667 368,83.5C 367.852,74.1291 372.018,67.4624 380.5,63.5C 380.833,64 381.167,64.5 381.5,65C 380.231,69.0345 378.565,72.8678 376.5,76.5 Z"/></g>
<g><path style="opacity:1" fill="#ea4f32" d="M 498.5,101.5 C 497.373,100.878 496.373,100.045 495.5,99C 487.856,100.41 480.523,99.4095 473.5,96C 472.167,95.3333 472.167,94.6667 473.5,94C 475.513,92.7428 477.679,91.9095 480,91.5C 483.166,92.4224 486.333,92.9224 489.5,93C 488.619,92.2917 487.953,91.4584 487.5,90.5C 488.767,91.087 489.767,91.087 490.5,90.5C 487.254,85.5279 486.254,80.1946 487.5,74.5C 495.258,80.0107 497.925,87.344 495.5,96.5C 496.952,97.9397 497.952,99.6064 498.5,101.5 Z"/></g>
<g><path style="opacity:1" fill="#f9b7aa" d="M 376.5,76.5 C 376.5,77.1667 376.5,77.8333 376.5,78.5C 376.5,78.8333 376.5,79.1667 376.5,79.5C 376.167,80.1667 375.833,80.8333 375.5,81.5C 375.103,82.525 374.437,82.6917 373.5,82C 374.634,80.984 374.301,80.3173 372.5,80C 373.705,78.6244 375.038,77.4577 376.5,76.5 Z"/></g>
<g><path style="opacity:1" fill="#f59d8b" d="M 472.5,77.5 C 473.962,78.4577 475.295,79.6244 476.5,81C 475.182,82.6298 473.849,82.7965 472.5,81.5C 471.942,80.2101 470.942,79.3768 469.5,79C 470.737,78.7679 471.737,78.2679 472.5,77.5 Z"/></g>
<g><path style="opacity:1" fill="#e8482b" d="M 412.5,87.5 C 454.355,85.2435 482.522,103.577 497,142.5C 504.685,180.148 492.518,209.314 460.5,230C 423.708,247.343 391.541,241.176 364,211.5C 342.438,179.975 342.104,148.308 363,116.5C 376.001,100.626 392.501,90.9595 412.5,87.5 Z"/></g>
<g><path style="opacity:1" fill="#f07b65" d="M 482.5,86.5 C 484.749,87.0798 486.415,88.4131 487.5,90.5C 485.251,89.9202 483.585,88.5869 482.5,86.5 Z"/></g>
<g><path style="opacity:1" fill="#e94d31" d="M 347.5,103.5 C 346.913,104.767 346.913,105.767 347.5,106.5C 352.447,102.779 357.447,102.613 362.5,106C 355.955,110.793 348.621,113.293 340.5,113.5C 336.943,104.172 338.11,95.5056 344,87.5C 345.801,92.9237 345.967,98.4237 344.5,104C 344.667,104.5 344.833,105 345,105.5C 345.708,104.619 346.542,103.953 347.5,103.5 Z"/></g>
<g><path style="opacity:1" fill="#ea5134" d="M 502.5,106.5 C 503.65,107.85 504.317,107.684 504.5,106C 503.357,102.761 502.69,99.4281 502.5,96C 502.34,93.5303 503.007,91.3636 504.5,89.5C 506.834,92.1629 508.667,95.1629 510,98.5C 510.376,105.011 510.042,111.344 509,117.5C 502.101,115.298 495.268,112.465 488.5,109C 486.606,107.921 486.273,106.587 487.5,105C 492.993,103.642 497.827,104.809 502,108.5C 502.464,107.906 502.631,107.239 502.5,106.5 Z"/></g>
<g><path style="opacity:1" fill="#fee8e4" d="M 412.5,94.5 C 455.149,92.6736 481.649,112.34 492,153.5C 494.688,181.948 484.521,204.448 461.5,221C 432.044,237.926 404.044,235.926 377.5,215C 351.416,187.736 347.582,157.569 366,124.5C 377.768,108.543 393.268,98.5433 412.5,94.5 Z"/></g>
<g><path style="opacity:1" fill="#e84428" d="M 411.5,97.5 C 452.958,94.8176 478.791,113.484 489,153.5C 491.509,185.999 478.342,209.499 449.5,224C 414.62,235.818 386.787,226.651 366,196.5C 349.618,161.531 356.452,132.031 386.5,108C 394.457,103.348 402.79,99.8476 411.5,97.5 Z"/></g>
<g><path style="opacity:1" fill="#ee6f57" d="M 498.5,101.5 C 500.587,102.585 501.92,104.251 502.5,106.5C 500.413,105.415 499.08,103.749 498.5,101.5 Z"/></g>
<g><path style="opacity:1" fill="#fef1ef" d="M 422.5,107.5 C 424.6,109.906 427.266,111.573 430.5,112.5C 427.983,114.457 426.816,117.124 427,120.5C 424.88,117.92 422.713,117.92 420.5,120.5C 420.002,117.465 418.668,114.965 416.5,113C 417.905,111.731 419.571,111.231 421.5,111.5C 421.433,110.041 421.766,108.708 422.5,107.5 Z"/></g>
<g><path style="opacity:1" fill="#fef4f2" d="M 443.5,110.5 C 444.302,111.952 444.802,113.618 445,115.5C 446.771,116.304 448.271,117.471 449.5,119C 445.648,118.965 443.315,120.798 442.5,124.5C 441.278,122.022 439.278,121.022 436.5,121.5C 438.125,118.745 437.792,116.245 435.5,114C 437.5,113.667 439.5,113.333 441.5,113C 442.381,112.292 443.047,111.458 443.5,110.5 Z"/></g>
<g><path style="opacity:1" fill="#fef0ed" d="M 402.5,111.5 C 403.885,112.614 405.385,113.614 407,114.5C 411.599,113.045 412.432,114.211 409.5,118C 410.293,119.085 410.96,120.252 411.5,121.5C 408.813,122.098 406.646,123.431 405,125.5C 404.26,121.926 402.093,119.926 398.5,119.5C 401.894,117.891 403.227,115.224 402.5,111.5 Z"/></g>
<g><path style="opacity:1" fill="#f07d66" d="M 333.5,112.5 C 334.319,115.305 334.819,118.305 335,121.5C 336.609,118.593 338.442,115.927 340.5,113.5C 339.167,116.833 337.833,120.167 336.5,123.5C 336.189,124.478 335.522,125.145 334.5,125.5C 333.508,121.217 333.174,116.884 333.5,112.5 Z"/></g>
<g><path style="opacity:1" fill="#feefec" d="M 453.5,122.5 C 456.552,123.284 459.552,123.618 462.5,123.5C 461.167,125.833 461.167,128.167 462.5,130.5C 459.731,131.198 457.398,132.532 455.5,134.5C 454.571,133.311 454.238,131.978 454.5,130.5C 448.684,130.683 448.184,129.35 453,126.5C 453.49,125.207 453.657,123.873 453.5,122.5 Z"/></g>
<g><path style="opacity:1" fill="#fef5f4" d="M 392.5,123.5 C 393.968,125.64 395.635,127.806 397.5,130C 394.437,131.066 392.937,133.233 393,136.5C 391.022,134.261 388.522,132.928 385.5,132.5C 386.833,130.167 386.833,127.833 385.5,125.5C 386.922,124.453 388.422,124.453 390,125.5C 391.301,125.361 392.134,124.695 392.5,123.5 Z"/></g>
<g><path style="opacity:1" fill="#e94d31" d="M 333.5,112.5 C 333.174,116.884 333.508,121.217 334.5,125.5C 335.522,125.145 336.189,124.478 336.5,123.5C 340.63,118.937 345.63,117.603 351.5,119.5C 346.929,125.868 340.763,129.535 333,130.5C 331.353,134.422 330.353,138.422 330,142.5C 333.275,136.873 338.108,134.373 344.5,135C 340.89,141.779 335.557,146.612 328.5,149.5C 327.626,151.747 327.292,154.08 327.5,156.5C 326.596,155.791 326.263,154.791 326.5,153.5C 326.799,151.396 326.466,149.396 325.5,147.5C 322.636,145.134 320.802,142.134 320,138.5C 319.172,134.129 319.339,129.795 320.5,125.5C 324.856,129.882 327.356,135.215 328,141.5C 328.964,137.606 330.131,133.773 331.5,130C 326.807,122.126 326.307,113.96 330,105.5C 332.238,107.309 333.405,109.642 333.5,112.5 Z"/></g>
<g><path style="opacity:1" fill="#e94e32" d="M 520.5,176.5 C 519.833,176.5 519.5,176.167 519.5,175.5C 519.657,174.127 519.49,172.793 519,171.5C 512.545,167.204 508.711,161.204 507.5,153.5C 514.148,155.317 518.315,159.65 520,166.5C 520.91,161.336 520.41,156.336 518.5,151.5C 512.026,148.193 507.026,143.36 503.5,137C 510.236,136.371 515.069,139.204 518,145.5C 517.501,140.824 516.668,136.158 515.5,131.5C 507.488,131.158 501.154,127.658 496.5,121C 498.614,119.482 500.947,119.149 503.5,120C 506.249,121.123 508.749,122.623 511,124.5C 511.195,122.793 511.195,121.126 511,119.5C 512.185,121.377 513.185,123.377 514,125.5C 514.173,120.416 514.839,115.416 516,110.5C 516.981,107.311 518.314,106.978 520,109.5C 522.746,117.841 521.579,125.508 516.5,132.5C 517.976,136.404 519.143,140.404 520,144.5C 521.027,139.079 523.027,134.079 526,129.5C 527,128.167 528,128.167 529,129.5C 530.93,137.872 528.763,144.872 522.5,150.5C 521.338,155.467 521.171,160.467 522,165.5C 523.532,159.097 527.032,154.097 532.5,150.5C 533.465,158.101 531.131,164.601 525.5,170C 523.975,171.009 522.308,171.509 520.5,171.5C 520.5,173.167 520.5,174.833 520.5,176.5 Z"/></g>
<g><path style="opacity:1" fill="#e94b2e" d="M 324.5,160.5 C 325.244,163.884 326.577,164.218 328.5,161.5C 329.986,155.09 333.986,151.424 340.5,150.5C 338.825,157.836 334.825,163.503 328.5,167.5C 327.534,169.396 327.201,171.396 327.5,173.5C 327.5,174.167 327.167,174.5 326.5,174.5C 326.662,172.473 326.495,170.473 326,168.5C 317.27,164.156 313.77,157.156 315.5,147.5C 320.22,150.596 323.22,154.929 324.5,160.5 Z"/></g>
<g><path style="opacity:1" fill="#fef6f4" d="M 449.5,146.5 C 451.792,146.244 453.959,146.577 456,147.5C 456.5,161.496 456.667,175.496 456.5,189.5C 454.167,189.5 451.833,189.5 449.5,189.5C 449.5,183.5 449.5,177.5 449.5,171.5C 433.167,171.5 416.833,171.5 400.5,171.5C 400.5,176.833 400.5,182.167 400.5,187.5C 398.5,187.5 396.5,187.5 394.5,187.5C 394.5,174.167 394.5,160.833 394.5,147.5C 396.5,147.5 398.5,147.5 400.5,147.5C 400.5,153.167 400.5,158.833 400.5,164.5C 416.833,164.5 433.167,164.5 449.5,164.5C 449.5,158.5 449.5,152.5 449.5,146.5 Z"/></g>
<g><path style="opacity:1" fill="#fef5f3" d="M 382.5,154.5 C 384.833,154.5 387.167,154.5 389.5,154.5C 389.5,163.5 389.5,172.5 389.5,181.5C 387.167,181.5 384.833,181.5 382.5,181.5C 382.5,178.167 382.5,174.833 382.5,171.5C 380.833,171.5 379.167,171.5 377.5,171.5C 377.5,169.167 377.5,166.833 377.5,164.5C 379.167,164.5 380.833,164.5 382.5,164.5C 382.5,161.167 382.5,157.833 382.5,154.5 Z"/></g>
<g><path style="opacity:1" fill="#fef7f6" d="M 460.5,153.5 C 462.5,153.5 464.5,153.5 466.5,153.5C 466.5,157.167 466.5,160.833 466.5,164.5C 468.5,164.5 470.5,164.5 472.5,164.5C 472.5,166.833 472.5,169.167 472.5,171.5C 470.833,171.5 469.167,171.5 467.5,171.5C 467.5,175.167 467.5,178.833 467.5,182.5C 465.167,182.5 462.833,182.5 460.5,182.5C 460.5,172.833 460.5,163.167 460.5,153.5 Z"/></g>
<g><path style="opacity:1" fill="#f18976" d="M 326.5,153.5 C 326.263,154.791 326.596,155.791 327.5,156.5C 327.216,158.415 327.549,160.081 328.5,161.5C 326.577,164.218 325.244,163.884 324.5,160.5C 325.167,158.167 325.833,155.833 326.5,153.5 Z"/></g>
<g><path style="opacity:1" fill="#e94a2d" d="M 516.5,184.5 C 517.246,188.31 518.246,188.31 519.5,184.5C 522.639,180.53 526.305,177.03 530.5,174C 531.635,173.251 532.635,173.417 533.5,174.5C 530.842,184.255 524.842,190.588 515.5,193.5C 513.211,189.673 511.044,185.673 509,181.5C 505.979,168.027 508.313,167.361 516,179.5C 516.494,181.134 516.66,182.801 516.5,184.5 Z"/></g>
<g><path style="opacity:1" fill="#f2826d" d="M 519.5,175.5 C 519.5,176.167 519.833,176.5 520.5,176.5C 519.735,179.096 519.401,181.763 519.5,184.5C 518.246,188.31 517.246,188.31 516.5,184.5C 517.816,181.592 518.816,178.592 519.5,175.5 Z"/></g>
<g><path style="opacity:1" fill="#e94c2f" d="M 354.5,230.5 C 352.037,228.539 349.703,226.372 347.5,224C 338.28,224.724 331.28,221.224 326.5,213.5C 328.421,212.359 330.421,212.192 332.5,213C 336.46,214.488 340.126,216.154 343.5,218C 341.167,214.333 338.833,210.667 336.5,207C 327.439,205.775 321.105,200.942 317.5,192.5C 320.242,191.782 322.909,192.282 325.5,194C 328.28,195.812 330.78,197.979 333,200.5C 331.768,196.285 330.601,191.952 329.5,187.5C 323.857,187.256 319.691,184.589 317,179.5C 312.195,167.127 314.528,166.127 324,176.5C 325.094,178.078 325.928,179.745 326.5,181.5C 327.281,183.322 328.448,183.989 330,183.5C 330.494,181.866 330.66,180.199 330.5,178.5C 331.424,173.245 334.424,169.912 339.5,168.5C 339.286,176.319 336.286,182.819 330.5,188C 331.921,192.174 333.421,196.341 335,200.5C 334.609,193.951 336.942,188.618 342,184.5C 343.683,192.414 342.183,199.581 337.5,206C 339.667,209.5 341.833,213 344,216.5C 344.333,212.833 344.667,209.167 345,205.5C 345.972,203.695 347.139,202.028 348.5,200.5C 351.102,207.617 351.102,214.784 348.5,222C 350.73,224.72 352.73,227.554 354.5,230.5 Z"/></g>
<g><path style="opacity:1" fill="#f1836e" d="M 327.5,173.5 C 328.309,175.292 328.809,177.292 329,179.5C 329.383,178.944 329.883,178.611 330.5,178.5C 330.66,180.199 330.494,181.866 330,183.5C 328.448,183.989 327.281,183.322 326.5,181.5C 327.103,179.374 327.103,177.041 326.5,174.5C 327.167,174.5 327.5,174.167 327.5,173.5 Z"/></g>
<g><path style="opacity:1" fill="#e94b2e" d="M 509.5,196.5 C 509.335,199.518 509.502,202.518 510,205.5C 510.278,204.584 510.778,203.918 511.5,203.5C 511.369,204.239 511.536,204.906 512,205.5C 515.916,200.795 520.749,197.462 526.5,195.5C 527.932,195.733 528.432,196.4 528,197.5C 525.766,201.458 522.933,204.958 519.5,208C 515.129,209.633 510.796,211.133 506.5,212.5C 506.539,211.417 506.873,210.417 507.5,209.5C 505.806,207.446 504.639,205.112 504,202.5C 503.333,197.5 503.333,192.5 504,187.5C 507.32,189.641 509.154,192.641 509.5,196.5 Z"/></g>
<g><path style="opacity:1" fill="#fef2f0" d="M 424.5,195.5 C 426.267,197.792 427.267,200.458 427.5,203.5C 430.187,203.336 432.854,203.503 435.5,204C 433.208,205.29 431.208,206.957 429.5,209C 431.05,211.095 431.383,213.262 430.5,215.5C 428.807,213.973 426.973,212.64 425,211.5C 422.815,212.928 420.815,214.595 419,216.5C 418.846,213.937 419.346,211.437 420.5,209C 418.812,206.981 416.812,205.314 414.5,204C 421.264,205.01 424.598,202.176 424.5,195.5 Z"/></g>
<g><path style="opacity:1" fill="#f28773" d="M 515.5,193.5 C 515.248,197.327 513.915,200.66 511.5,203.5C 510.778,203.918 510.278,204.584 510,205.5C 509.502,202.518 509.335,199.518 509.5,196.5C 510.309,198.292 510.809,200.292 511,202.5C 512.424,199.352 513.924,196.352 515.5,193.5 Z"/></g>
<g><path style="opacity:1" fill="#e94a2d" d="M 500.5,217.5 C 498.674,219.437 498.507,221.437 500,223.5C 500.995,222.934 501.828,222.267 502.5,221.5C 506.389,219.139 510.555,217.472 515,216.5C 516.167,216.833 517.333,217.167 518.5,217.5C 512.62,225.647 504.62,229.313 494.5,228.5C 494.539,227.417 494.873,226.417 495.5,225.5C 492.483,218.197 492.983,211.197 497,204.5C 500.147,208.206 501.313,212.539 500.5,217.5 Z"/></g>
<g><path style="opacity:1" fill="#e94c2f" d="M 363.5,238.5 C 362.417,238.461 361.417,238.127 360.5,237.5C 351.461,240.669 343.794,238.503 337.5,231C 343.296,230.209 348.962,230.709 354.5,232.5C 354.897,233.525 355.563,233.692 356.5,233C 357.774,232.023 357.774,231.189 356.5,230.5C 355.537,226.204 355.371,221.871 356,217.5C 356.853,215.875 357.853,215.542 359,216.5C 360.275,218.717 361.275,221.051 362,223.5C 362.219,228.582 362.719,233.582 363.5,238.5 Z"/></g>
<g><path style="opacity:1" fill="#ef745d" d="M 506.5,212.5 C 506.155,215.198 504.822,217.198 502.5,218.5C 503.34,216.147 504.674,214.147 506.5,212.5 Z"/></g>
<g><path style="opacity:1" fill="#e9492c" d="M 486.5,234.5 C 484.678,235.281 484.011,236.448 484.5,238C 486.14,238.348 487.473,237.848 488.5,236.5C 494.188,234.236 499.855,234.069 505.5,236C 497.994,242.6 489.66,244.1 480.5,240.5C 479.283,232.36 481.116,225.027 486,218.5C 487.975,220.17 488.809,222.336 488.5,225C 488.345,228.292 487.678,231.459 486.5,234.5 Z"/></g>
<g><path style="opacity:1" fill="#f38c78" d="M 500.5,217.5 C 500.409,219.698 501.075,220.031 502.5,218.5C 501.884,219.798 501.884,220.798 502.5,221.5C 501.828,222.267 500.995,222.934 500,223.5C 498.507,221.437 498.674,219.437 500.5,217.5 Z"/></g>
<g><path style="opacity:1" fill="#e94b2e" d="M 371.5,245.5 C 372.497,246.713 373.497,246.546 374.5,245C 373.922,243.583 372.922,242.75 371.5,242.5C 370,239.165 369,235.665 368.5,232C 368.454,230.272 368.954,228.772 370,227.5C 375.736,233.138 378.902,239.971 379.5,248C 370.602,252.98 361.935,252.646 353.5,247C 355.852,245.272 358.519,244.439 361.5,244.5C 364.817,245.053 368.15,245.386 371.5,245.5 Z"/></g>
<g><path style="opacity:1" fill="#ea5336" d="M 474.5,244.5 C 473.251,246.136 471.584,247.303 469.5,248C 473.452,247.566 477.452,247.566 481.5,248C 484.177,248.249 486.51,249.249 488.5,251C 484.385,253.654 479.885,255.154 475,255.5C 470.054,254.259 465.221,252.925 460.5,251.5C 461.172,250.733 462.005,250.066 463,249.5C 463.542,242.251 466.375,236.084 471.5,231C 472.449,230.383 473.282,230.549 474,231.5C 475.059,236.556 473.893,241.056 470.5,245C 471.819,245.195 473.153,245.028 474.5,244.5 Z"/></g>
<g><path style="opacity:1" fill="#f7a899" d="M 354.5,230.5 C 355.167,230.5 355.833,230.5 356.5,230.5C 357.774,231.189 357.774,232.023 356.5,233C 355.563,233.692 354.897,233.525 354.5,232.5C 354.5,231.833 354.5,231.167 354.5,230.5 Z"/></g>
<g><path style="opacity:1" fill="#f27d65" d="M 494.5,228.5 C 493.073,231.764 490.739,234.264 487.5,236C 487.728,236.399 488.062,236.565 488.5,236.5C 487.473,237.848 486.14,238.348 484.5,238C 484.011,236.448 484.678,235.281 486.5,234.5C 489.45,232.885 492.116,230.885 494.5,228.5 Z"/></g>
<g><path style="opacity:1" fill="#f27e67" d="M 363.5,238.5 C 366.167,239.833 368.833,241.167 371.5,242.5C 372.922,242.75 373.922,243.583 374.5,245C 373.497,246.546 372.497,246.713 371.5,245.5C 368.833,243.167 366.167,240.833 363.5,238.5 Z"/></g>
<g><path style="opacity:1" fill="#ed6950" d="M 480.5,240.5 C 480.027,241.906 479.027,242.573 477.5,242.5C 477.973,241.094 478.973,240.427 480.5,240.5 Z"/></g>
<g><path style="opacity:1" fill="#ed6c54" d="M 477.5,242.5 C 477.027,243.906 476.027,244.573 474.5,244.5C 474.973,243.094 475.973,242.427 477.5,242.5 Z"/></g>
<g><path style="opacity:1" fill="#ef765e" d="M 381.5,250.5 C 381.735,249.903 382.235,249.57 383,249.5C 389.379,252.071 395.879,254.237 402.5,256C 395.167,255.583 388.167,253.75 381.5,250.5 Z"/></g>
<g><path style="opacity:1" fill="#f17d66" d="M 460.5,251.5 C 454.141,254.683 447.307,256.683 440,257.5C 439.167,257.167 438.333,256.833 437.5,256.5C 445.21,254.989 452.877,253.322 460.5,251.5 Z"/></g>
<g><path style="opacity:1" fill="#8c8c8c" d="M 675.5,328.5 C 680.305,327.513 685.305,327.179 690.5,327.5C 690.5,332.5 690.5,337.5 690.5,342.5C 685.167,342.5 679.833,342.5 674.5,342.5C 674.181,337.637 674.514,332.97 675.5,328.5 Z"/></g>
<g><path style="opacity:1" fill="#333333" d="M 312.5,328.5 C 317.167,328.5 321.833,328.5 326.5,328.5C 326.5,332.833 326.5,337.167 326.5,341.5C 321.833,341.5 317.167,341.5 312.5,341.5C 312.5,337.167 312.5,332.833 312.5,328.5 Z"/></g>
<g><path style="opacity:1" fill="#333333" d="M 675.5,328.5 C 680.167,328.5 684.833,328.5 689.5,328.5C 689.5,332.833 689.5,337.167 689.5,341.5C 684.833,341.5 680.167,341.5 675.5,341.5C 675.5,337.167 675.5,332.833 675.5,328.5 Z"/></g>
<g><path style="opacity:1" fill="#343434" d="M 617.5,329.5 C 622.167,329.5 626.833,329.5 631.5,329.5C 631.175,337.019 631.508,344.352 632.5,351.5C 639.508,351.334 646.508,351.5 653.5,352C 659.588,353.09 663.421,356.59 665,362.5C 665.5,377.496 665.667,392.496 665.5,407.5C 660.833,407.5 656.167,407.5 651.5,407.5C 651.667,393.496 651.5,379.496 651,365.5C 650.617,364.944 650.117,364.611 649.5,364.5C 643.69,363.51 637.69,363.177 631.5,363.5C 631.5,377.833 631.5,392.167 631.5,406.5C 626.833,406.5 622.167,406.5 617.5,406.5C 617.5,380.833 617.5,355.167 617.5,329.5 Z"/></g>
<g><path style="opacity:1" fill="#7e7e7e" d="M 617.5,329.5 C 622.305,328.513 627.305,328.179 632.5,328.5C 632.5,336.167 632.5,343.833 632.5,351.5C 631.508,344.352 631.175,337.019 631.5,329.5C 626.833,329.5 622.167,329.5 617.5,329.5 Z"/></g>
<g><path style="opacity:1" fill="#333333" d="M 102.5,347.5 C 94.8333,347.5 87.1667,347.5 79.5,347.5C 79.5,367.167 79.5,386.833 79.5,406.5C 74.8333,406.5 70.1667,406.5 65.5,406.5C 65.5,386.833 65.5,367.167 65.5,347.5C 57.8333,347.5 50.1667,347.5 42.5,347.5C 42.5,343.167 42.5,338.833 42.5,334.5C 62.5,334.5 82.5,334.5 102.5,334.5C 102.5,338.833 102.5,343.167 102.5,347.5 Z"/></g>
<g><path style="opacity:1" fill="#737373" d="M 257.5,334.5 C 257.5,358.5 257.5,382.5 257.5,406.5C 262.167,406.5 266.833,406.5 271.5,406.5C 271.173,397.318 271.507,388.318 272.5,379.5C 272.5,388.833 272.5,398.167 272.5,407.5C 267.167,407.5 261.833,407.5 256.5,407.5C 256.169,382.994 256.502,358.661 257.5,334.5 Z"/></g>
<g><path style="opacity:1" fill="#323332" d="M 257.5,334.5 C 273.833,334.5 290.167,334.5 306.5,334.5C 306.5,338.833 306.5,343.167 306.5,347.5C 294.833,347.5 283.167,347.5 271.5,347.5C 271.5,353.833 271.5,360.167 271.5,366.5C 282.167,366.5 292.833,366.5 303.5,366.5C 303.5,370.833 303.5,375.167 303.5,379.5C 293.167,379.5 282.833,379.5 272.5,379.5C 271.507,388.318 271.173,397.318 271.5,406.5C 266.833,406.5 262.167,406.5 257.5,406.5C 257.5,382.5 257.5,358.5 257.5,334.5 Z"/></g>
<g><path style="opacity:1" fill="#353535" d="M 369.5,363.5 C 363.167,363.5 356.833,363.5 350.5,363.5C 350.173,373.348 350.506,383.014 351.5,392.5C 351.611,393.117 351.944,393.617 352.5,394C 358.491,394.499 364.491,394.666 370.5,394.5C 370.664,397.187 370.497,399.854 370,402.5C 368.075,403.88 366.241,405.38 364.5,407C 358.833,407.667 353.167,407.667 347.5,407C 341.107,405.273 337.607,401.106 337,394.5C 336.5,374.503 336.333,354.503 336.5,334.5C 341.5,334.5 346.5,334.5 351.5,334.5C 351.5,340.167 351.5,345.833 351.5,351.5C 357.5,351.5 363.5,351.5 369.5,351.5C 369.5,355.5 369.5,359.5 369.5,363.5 Z"/></g>
<g><path style="opacity:1" fill="#353535" d="M 408.5,334.5 C 420.171,334.333 431.838,334.5 443.5,335C 448.927,337.441 450.927,341.608 449.5,347.5C 437.495,347.333 425.495,347.5 413.5,348C 413,348.5 412.5,349 412,349.5C 411.177,364.075 411.344,378.575 412.5,393C 424.829,393.5 437.162,393.667 449.5,393.5C 449.665,396.518 449.498,399.518 449,402.5C 446.876,403.622 445.043,405.122 443.5,407C 431.833,407.667 420.167,407.667 408.5,407C 402.233,405.066 398.399,400.9 397,394.5C 396.333,378.5 396.333,362.5 397,346.5C 398.683,340.319 402.517,336.319 408.5,334.5 Z"/></g>
<g><path style="opacity:1" fill="#787878" d="M 312.5,328.5 C 317.305,327.513 322.305,327.179 327.5,327.5C 327.5,332.5 327.5,337.5 327.5,342.5C 322.305,342.821 317.305,342.487 312.5,341.5C 317.167,341.5 321.833,341.5 326.5,341.5C 326.5,337.167 326.5,332.833 326.5,328.5C 321.833,328.5 317.167,328.5 312.5,328.5 Z"/></g>
<g><path style="opacity:1" fill="#919191" d="M 42.5,347.5 C 50.1667,347.5 57.8333,347.5 65.5,347.5C 65.5,367.167 65.5,386.833 65.5,406.5C 65.5,406.833 65.5,407.167 65.5,407.5C 64.5029,388.007 64.1696,368.34 64.5,348.5C 56.9809,348.825 49.6476,348.492 42.5,347.5 Z"/></g>
<g><path style="opacity:1" fill="#747474" d="M 102.5,347.5 C 95.3524,348.492 88.0191,348.825 80.5,348.5C 80.5,368.167 80.5,387.833 80.5,407.5C 75.5,407.5 70.5,407.5 65.5,407.5C 65.5,407.167 65.5,406.833 65.5,406.5C 70.1667,406.5 74.8333,406.5 79.5,406.5C 79.5,386.833 79.5,367.167 79.5,347.5C 87.1667,347.5 94.8333,347.5 102.5,347.5 Z"/></g>
<g><path style="opacity:1" fill="#333333" d="M 118.5,365.5 C 117.504,378.99 117.171,392.656 117.5,406.5C 113.167,406.5 108.833,406.5 104.5,406.5C 104.5,390.167 104.5,373.833 104.5,357.5C 105.716,355.549 107.382,354.049 109.5,353C 116.444,351.545 123.444,351.212 130.5,352C 135.514,354.153 137.514,357.986 136.5,363.5C 130.824,363.334 125.157,363.501 119.5,364C 118.944,364.383 118.611,364.883 118.5,365.5 Z"/></g>
<g><path style="opacity:1" fill="#363636" d="M 141.5,351.5 C 146.167,351.5 150.833,351.5 155.5,351.5C 155.333,365.171 155.5,378.837 156,392.5C 156.5,393 157,393.5 157.5,394C 163.157,394.499 168.824,394.666 174.5,394.5C 174.5,380.167 174.5,365.833 174.5,351.5C 179.5,351.5 184.5,351.5 189.5,351.5C 189.5,370.167 189.5,388.833 189.5,407.5C 177.162,407.667 164.829,407.5 152.5,407C 146.553,405.387 143.053,401.553 142,395.5C 141.5,380.837 141.333,366.17 141.5,351.5 Z"/></g>
<g><path style="opacity:1" fill="#343434" d="M 246.5,384.5 C 235.167,384.5 223.833,384.5 212.5,384.5C 212.194,387.385 212.527,390.052 213.5,392.5C 213.611,393.117 213.944,393.617 214.5,394C 224.494,394.5 234.494,394.666 244.5,394.5C 245.927,400.392 243.927,404.559 238.5,407C 228.833,407.667 219.167,407.667 209.5,407C 203.107,405.273 199.607,401.106 199,394.5C 198.333,383.833 198.333,373.167 199,362.5C 200.5,357 204,353.5 209.5,352C 218.895,351.114 228.228,351.447 237.5,353C 242.052,354.588 244.885,357.755 246,362.5C 246.5,369.826 246.666,377.159 246.5,384.5 Z"/></g>
<g><path style="opacity:1" fill="#333333" d="M 312.5,351.5 C 317.167,351.5 321.833,351.5 326.5,351.5C 326.5,370.167 326.5,388.833 326.5,407.5C 321.833,407.5 317.167,407.5 312.5,407.5C 312.5,388.833 312.5,370.167 312.5,351.5 Z"/></g>
<g><path style="opacity:1" fill="#353535" d="M 467.5,351.5 C 476.173,351.334 484.84,351.5 493.5,352C 499.127,352.957 502.96,356.124 505,361.5C 505.667,372.833 505.667,384.167 505,395.5C 503.87,401.964 500.036,405.797 493.5,407C 485.167,407.667 476.833,407.667 468.5,407C 461.884,405.384 458.051,401.218 457,394.5C 456.333,384.167 456.333,373.833 457,363.5C 458.594,357.745 462.094,353.745 467.5,351.5 Z"/></g>
<g><path style="opacity:1" fill="#353535" d="M 541.5,364.5 C 534.018,363.508 526.352,363.175 518.5,363.5C 518.5,361.167 518.5,358.833 518.5,356.5C 522.706,351.985 528.04,350.318 534.5,351.5C 541.478,350.771 547.978,352.105 554,355.5C 555.861,357.888 557.194,360.554 558,363.5C 558.5,378.163 558.667,392.83 558.5,407.5C 546.829,407.667 535.162,407.5 523.5,407C 519.157,405.99 515.99,403.49 514,399.5C 512.483,393.92 512.149,388.253 513,382.5C 515.315,378.183 518.815,375.35 523.5,374C 530.158,373.5 536.825,373.334 543.5,373.5C 544.055,369.988 543.388,366.988 541.5,364.5 Z"/></g>
<g><path style="opacity:1" fill="#353535" d="M 577.5,351.5 C 586.506,351.334 595.506,351.5 604.5,352C 609.514,354.153 611.514,357.986 610.5,363.5C 601.494,363.334 592.494,363.5 583.5,364C 583,364.5 582.5,365 582,365.5C 581.182,375.078 581.349,384.578 582.5,394C 591.827,394.5 601.161,394.666 610.5,394.5C 610.664,397.187 610.497,399.854 610,402.5C 608.075,403.88 606.241,405.38 604.5,407C 595.833,407.667 587.167,407.667 578.5,407C 573.427,405.594 569.927,402.428 568,397.5C 567.333,385.5 567.333,373.5 568,361.5C 570.022,356.98 573.189,353.647 577.5,351.5 Z"/></g>
<g><path style="opacity:1" fill="#343434" d="M 675.5,351.5 C 680.167,351.5 684.833,351.5 689.5,351.5C 689.5,370.167 689.5,388.833 689.5,407.5C 684.833,407.5 680.167,407.5 675.5,407.5C 675.5,388.833 675.5,370.167 675.5,351.5 Z"/></g>
<g><path style="opacity:1" fill="#707070" d="M 700.5,351.5 C 700.5,369.833 700.5,388.167 700.5,406.5C 705.167,406.5 709.833,406.5 714.5,406.5C 709.695,407.487 704.695,407.821 699.5,407.5C 699.17,388.659 699.503,369.993 700.5,351.5 Z"/></g>
<g><path style="opacity:1" fill="#343434" d="M 700.5,351.5 C 712.171,351.333 723.838,351.5 735.5,352C 741.127,352.957 744.96,356.124 747,361.5C 747.5,376.83 747.667,392.163 747.5,407.5C 742.833,407.5 738.167,407.5 733.5,407.5C 733.667,393.496 733.5,379.496 733,365.5C 732.5,365 732,364.5 731.5,364C 725.843,363.501 720.176,363.334 714.5,363.5C 714.5,377.833 714.5,392.167 714.5,406.5C 709.833,406.5 705.167,406.5 700.5,406.5C 700.5,388.167 700.5,369.833 700.5,351.5 Z"/></g>
<g><path style="opacity:1" fill="#353535" d="M 761.5,423.5 C 761.5,421.167 761.5,418.833 761.5,416.5C 770.349,416.826 779.016,416.493 787.5,415.5C 788.117,415.389 788.617,415.056 789,414.5C 789.497,412.19 789.663,409.857 789.5,407.5C 782.159,407.666 774.826,407.5 767.5,407C 761.553,405.387 758.053,401.553 757,395.5C 756.333,384.167 756.333,372.833 757,361.5C 759.04,356.124 762.873,352.957 768.5,352C 780.495,351.5 792.495,351.333 804.5,351.5C 804.667,372.836 804.5,394.169 804,415.5C 802.833,422.667 798.667,426.833 791.5,428C 783.167,428.667 774.833,428.667 766.5,428C 764.76,426.483 763.094,424.983 761.5,423.5 Z"/></g>
<g><path style="opacity:1" fill="#5f5f5f" d="M 104.5,357.5 C 104.5,373.833 104.5,390.167 104.5,406.5C 108.833,406.5 113.167,406.5 117.5,406.5C 117.171,392.656 117.504,378.99 118.5,365.5C 118.5,379.5 118.5,393.5 118.5,407.5C 113.5,407.5 108.5,407.5 103.5,407.5C 103.17,390.658 103.503,373.992 104.5,357.5 Z"/></g>
<g><path style="opacity:1" fill="#979797" d="M 518.5,356.5 C 518.5,358.833 518.5,361.167 518.5,363.5C 526.352,363.175 534.018,363.508 541.5,364.5C 533.5,364.5 525.5,364.5 517.5,364.5C 517.194,361.615 517.527,358.948 518.5,356.5 Z"/></g>
<g><path style="opacity:1" fill="#f1f1f1" d="M 214.5,363.5 C 219.897,363.215 225.23,363.549 230.5,364.5C 232.27,367.193 232.937,370.193 232.5,373.5C 226.167,373.5 219.833,373.5 213.5,373.5C 213.253,370.061 213.586,366.728 214.5,363.5 Z"/></g>
<g><path style="opacity:1" fill="#878787" d="M 369.5,363.5 C 363.69,364.49 357.69,364.823 351.5,364.5C 351.5,373.833 351.5,383.167 351.5,392.5C 350.506,383.014 350.173,373.348 350.5,363.5C 356.833,363.5 363.167,363.5 369.5,363.5 Z"/></g>
<g><path style="opacity:1" fill="#f9f9f9" d="M 473.5,363.5 C 478.844,363.334 484.177,363.501 489.5,364C 490,364.5 490.5,365 491,365.5C 491.818,375.078 491.651,384.578 490.5,394C 484.251,394.809 478.084,394.642 472,393.5C 471.333,384.167 471.333,374.833 472,365.5C 472.717,364.956 473.217,364.289 473.5,363.5 Z"/></g>
<g><path style="opacity:1" fill="#777777" d="M 649.5,364.5 C 643.833,364.5 638.167,364.5 632.5,364.5C 632.5,378.833 632.5,393.167 632.5,407.5C 627.305,407.821 622.305,407.487 617.5,406.5C 622.167,406.5 626.833,406.5 631.5,406.5C 631.5,392.167 631.5,377.833 631.5,363.5C 637.69,363.177 643.69,363.51 649.5,364.5 Z"/></g>
<g><path style="opacity:1" fill="#f8f8f8" d="M 772.5,363.5 C 778.167,363.5 783.833,363.5 789.5,363.5C 789.5,373.833 789.5,384.167 789.5,394.5C 783.463,394.829 777.463,394.496 771.5,393.5C 770.36,384.215 770.194,374.881 771,365.5C 771.717,364.956 772.217,364.289 772.5,363.5 Z"/></g>
<g><path style="opacity:1" fill="#979797" d="M 306.5,347.5 C 295.346,348.495 284.012,348.828 272.5,348.5C 272.5,354.167 272.5,359.833 272.5,365.5C 283.014,365.172 293.347,365.506 303.5,366.5C 292.833,366.5 282.167,366.5 271.5,366.5C 271.5,360.167 271.5,353.833 271.5,347.5C 283.167,347.5 294.833,347.5 306.5,347.5 Z"/></g>
<g><path style="opacity:1" fill="#bebebe" d="M 246.5,384.5 C 235.679,385.495 224.679,385.828 213.5,385.5C 213.5,387.833 213.5,390.167 213.5,392.5C 212.527,390.052 212.194,387.385 212.5,384.5C 223.833,384.5 235.167,384.5 246.5,384.5 Z"/></g>
<g><path style="opacity:1" fill="#8a8a8a" d="M 528.5,385.5 C 533.64,384.512 538.974,384.179 544.5,384.5C 544.813,388.042 544.479,391.375 543.5,394.5C 543.5,391.5 543.5,388.5 543.5,385.5C 538.5,385.5 533.5,385.5 528.5,385.5 Z"/></g>
<g><path style="opacity:1" fill="#fcfcfc" d="M 528.5,385.5 C 533.5,385.5 538.5,385.5 543.5,385.5C 543.5,388.5 543.5,391.5 543.5,394.5C 538.156,394.666 532.823,394.499 527.5,394C 526.892,392.769 526.559,391.436 526.5,390C 526.307,387.992 526.974,386.492 528.5,385.5 Z"/></g>
<g><path style="opacity:1" fill="#6d6d6d" d="M 787.5,415.5 C 779.016,416.493 770.349,416.826 761.5,416.5C 761.5,418.833 761.5,421.167 761.5,423.5C 760.527,421.052 760.194,418.385 760.5,415.5C 769.5,415.5 778.5,415.5 787.5,415.5 Z"/></g>
</svg>
