<?xml version="1.0" encoding="UTF-8"?>
<!DOCTYPE svg PUBLIC "-//W3C//DTD SVG 1.1//EN" "http://www.w3.org/Graphics/SVG/1.1/DTD/svg11.dtd">
<svg xmlns="http://www.w3.org/2000/svg" version="1.1" width="848px" height="245px" style="shape-rendering:geometricPrecision; text-rendering:geometricPrecision; image-rendering:optimizeQuality; fill-rule:evenodd; clip-rule:evenodd" xmlns:xlink="http://www.w3.org/1999/xlink">
<g><path style="opacity:1" fill="#fefefe" d="M -0.5,-0.5 C 282.167,-0.5 564.833,-0.5 847.5,-0.5C 847.5,81.1667 847.5,162.833 847.5,244.5C 564.833,244.5 282.167,244.5 -0.5,244.5C -0.5,162.833 -0.5,81.1667 -0.5,-0.5 Z"/></g>
<g><path style="opacity:1" fill="#ea4e32" d="M 97.5,76.5 C 96.8333,76.8333 96.1667,77.1667 95.5,77.5C 95.5473,72.9074 97.5473,69.4074 101.5,67C 107.667,63.1667 108.833,64.3333 105,70.5C 102.914,73.0939 100.414,75.0939 97.5,76.5 Z"/></g>
<g><path style="opacity:1" fill="#e94e31" d="M 86.5,80.5 C 84.7673,81.0076 84.434,81.841 85.5,83C 88.146,83.4974 90.8127,83.6641 93.5,83.5C 95.5441,84.0312 97.2107,85.1978 98.5,87C 92.9806,87.9993 87.6473,87.4993 82.5,85.5C 81.3777,86.6302 80.0443,87.2969 78.5,87.5C 80.8354,84.2705 82.3354,80.6039 83,76.5C 84.6946,73.3055 87.1946,70.9722 90.5,69.5C 91.1867,73.7649 89.8534,77.4316 86.5,80.5 Z"/></g>
<g><path style="opacity:1" fill="#e94e32" d="M 165.5,85.5 C 164.508,85.3284 163.842,85.6618 163.5,86.5C 158.558,88.7438 153.558,88.9105 148.5,87C 149.789,85.1978 151.456,84.0312 153.5,83.5C 156.397,83.8747 159.063,83.3747 161.5,82C 160.956,81.2828 160.289,80.7828 159.5,80.5C 157.783,77.558 156.45,74.3913 155.5,71C 155.833,70.5 156.167,70 156.5,69.5C 162.906,72.9082 165.906,78.2415 165.5,85.5 Z"/></g>
<g><path style="opacity:1" fill="#e94b2e" d="M 75.5,89.5 C 74.537,90.3635 74.537,91.0302 75.5,91.5C 79.7679,89.9909 83.7679,90.4909 87.5,93C 81.82,95.9742 76.1533,96.1409 70.5,93.5C 68.5966,86.9565 70.43,81.6231 76,77.5C 76.7622,81.3316 76.2622,84.9982 74.5,88.5C 74.6236,89.1067 74.9569,89.44 75.5,89.5 Z"/></g>
<g><path style="opacity:1" fill="#e94a2d" d="M 97.5,77.5 C 103.078,76.6274 107.411,78.4607 110.5,83C 105.139,84.2559 100.472,83.0892 96.5,79.5C 96.8333,78.8333 97.1667,78.1667 97.5,77.5 Z"/></g>
<g><path style="opacity:1" fill="#e94b2e" d="M 152.5,78.5 C 147.466,82.3484 141.799,83.8484 135.5,83C 138.974,78.3072 143.64,76.3072 149.5,77C 146.37,74.872 143.537,72.372 141,69.5C 139.813,67.9556 139.48,66.2889 140,64.5C 146.835,66.8323 151.001,71.499 152.5,78.5 Z"/></g>
<g><path style="opacity:1" fill="#e94f32" d="M 177.5,93.5 C 176.662,93.8417 176.328,94.5084 176.5,95.5C 170.49,97.2065 164.824,96.3732 159.5,93C 163.167,90.2238 167.167,89.7238 171.5,91.5C 172.386,92.7759 173.386,92.7759 174.5,91.5C 174.145,90.4777 173.478,89.811 172.5,89.5C 170.831,85.6489 170.331,81.6489 171,77.5C 176.21,81.5885 178.377,86.9219 177.5,93.5 Z"/></g>
<g><path style="opacity:1" fill="#f59f8e" d="M 152.5,78.5 C 154.921,78.8782 157.254,79.5448 159.5,80.5C 160.289,80.7828 160.956,81.2828 161.5,82C 159.063,83.3747 156.397,83.8747 153.5,83.5C 154.952,82.6981 156.618,82.1981 158.5,82C 156.273,81.059 154.273,79.8923 152.5,78.5 Z"/></g>
<g><path style="opacity:1" fill="#f3907d" d="M 97.5,76.5 C 97.5,76.8333 97.5,77.1667 97.5,77.5C 97.1667,78.1667 96.8333,78.8333 96.5,79.5C 95.8826,79.3893 95.3826,79.056 95,78.5C 92.913,79.7938 90.7463,80.9605 88.5,82C 90.3817,82.1981 92.0484,82.6981 93.5,83.5C 90.8127,83.6641 88.146,83.4974 85.5,83C 84.434,81.841 84.7673,81.0076 86.5,80.5C 86.4346,80.9382 86.6012,81.2716 87,81.5C 89.6587,79.7535 92.492,78.4202 95.5,77.5C 96.1667,77.1667 96.8333,76.8333 97.5,76.5 Z"/></g>
<g><path style="opacity:1" fill="#f28a76" d="M 163.5,86.5 C 163.842,85.6618 164.508,85.3284 165.5,85.5C 167.404,85.7376 168.738,86.7376 169.5,88.5C 167.685,87.3702 165.685,86.7036 163.5,86.5 Z"/></g>
<g><path style="opacity:1" fill="#e94b2e" d="M 111.5,87.5 C 145.569,84.7796 168.069,99.4463 179,131.5C 183.112,161.783 171.612,183.617 144.5,197C 111.751,207.313 87.2509,197.48 71,167.5C 59.6053,134.342 69.1053,109.175 99.5,92C 103.648,90.5565 107.648,89.0565 111.5,87.5 Z"/></g>
<g><path style="opacity:1" fill="#ee7862" d="M 78.5,87.5 C 78.0269,88.9063 77.0269,89.573 75.5,89.5C 75.9731,88.0937 76.9731,87.427 78.5,87.5 Z"/></g>
<g><path style="opacity:1" fill="#ea4f33" d="M 64.5,98.5 C 63.4265,99.2506 63.2599,100.251 64,101.5C 64.9772,102.774 65.8106,102.774 66.5,101.5C 70.0519,99.1317 73.7186,98.9651 77.5,101C 72.6972,104.934 67.1972,107.101 61,107.5C 59.6071,102.905 59.2738,98.2387 60,93.5C 60.6872,91.4453 61.8539,89.7786 63.5,88.5C 64.487,91.7683 64.8204,95.1016 64.5,98.5 Z"/></g>
<g><path style="opacity:1" fill="#ea4f32" d="M 186.5,108.5 C 180.21,107.88 174.543,105.714 169.5,102C 170.772,100.954 172.272,100.454 174,100.5C 176.187,100.788 178.354,101.122 180.5,101.5C 182.761,105.463 183.761,105.463 183.5,101.5C 182.044,97.0332 182.211,92.6999 184,88.5C 188.993,94.6174 189.826,101.284 186.5,108.5 Z"/></g>
<g><path style="opacity:1" fill="#f4a191" d="M 169.5,88.5 C 170.609,88.5569 171.609,88.8902 172.5,89.5C 173.478,89.811 174.145,90.4777 174.5,91.5C 173.386,92.7759 172.386,92.7759 171.5,91.5C 170.833,90.5 170.167,89.5 169.5,88.5 Z"/></g>
<g><path style="opacity:1" fill="#fde7e3" d="M 115.5,92.5 C 141.063,91.1906 159.563,101.857 171,124.5C 178.973,150.577 172.14,171.744 150.5,188C 123.618,201.881 100.452,197.381 81,174.5C 64.804,146.115 69.304,121.615 94.5,101C 101.187,97.0569 108.187,94.2235 115.5,92.5 Z"/></g>
<g><path style="opacity:1" fill="#e84528" d="M 115.5,94.5 C 145.007,93.6541 163.841,107.321 172,135.5C 174.201,166.944 160.035,186.11 129.5,193C 109.642,195.317 93.809,188.484 82,172.5C 67.2743,145.464 71.7743,122.298 95.5,103C 101.93,99.2762 108.596,96.4428 115.5,94.5 Z"/></g>
<g><path style="opacity:1" fill="#f28f7d" d="M 177.5,93.5 C 178.5,95.5 179.5,97.5 180.5,99.5C 178.833,98.5 177.5,97.1667 176.5,95.5C 176.328,94.5084 176.662,93.8417 177.5,93.5 Z"/></g>
<g><path style="opacity:1" fill="#f59e8d" d="M 66.5,101.5 C 65.8106,102.774 64.9772,102.774 64,101.5C 63.2599,100.251 63.4265,99.2506 64.5,98.5C 64.4346,98.9382 64.6012,99.2716 65,99.5C 66.3333,98.1667 67.6667,96.8333 69,95.5C 68.8047,97.745 67.6381,99.5784 65.5,101C 65.7284,101.399 66.0618,101.565 66.5,101.5 Z"/></g>
<g><path style="opacity:1" fill="#f49583" d="M 180.5,99.5 C 181.5,100.167 182.5,100.833 183.5,101.5C 183.761,105.463 182.761,105.463 180.5,101.5C 180.5,100.833 180.5,100.167 180.5,99.5 Z"/></g>
<g><path style="opacity:1" fill="#ea5538" d="M 55.5,105.5 C 55.335,108.85 55.5017,112.183 56,115.5C 56.4839,113.822 57.3172,113.156 58.5,113.5C 60.2554,112.928 61.9221,112.094 63.5,111C 65.5787,110.192 67.5787,110.359 69.5,111.5C 65.9707,116.103 61.304,118.936 55.5,120C 54.3313,122.007 53.6646,124.173 53.5,126.5C 52.8333,126.5 52.5,126.167 52.5,125.5C 52.6646,123.173 53.3313,121.007 54.5,119C 49.6522,113.396 49.3188,107.563 53.5,101.5C 54.7051,102.577 55.3718,103.91 55.5,105.5 Z"/></g>
<g><path style="opacity:1" fill="#feece8" d="M 122.5,102.5 C 123.98,104.412 125.98,105.579 128.5,106C 126.926,107.826 126.093,109.993 126,112.5C 124.149,110.219 122.482,110.219 121,112.5C 120.767,110.22 119.934,108.22 118.5,106.5C 120.421,105.676 121.754,104.343 122.5,102.5 Z"/></g>
<g><path style="opacity:1" fill="#6c6c6c" d="M 444.5,112.5 C 444.5,109.167 444.5,105.833 444.5,102.5C 441.167,102.5 437.833,102.5 434.5,102.5C 434.5,105.833 434.5,109.167 434.5,112.5C 433.518,109.038 433.185,105.371 433.5,101.5C 437.5,101.5 441.5,101.5 445.5,101.5C 445.815,105.371 445.482,109.038 444.5,112.5 Z"/></g>
<g><path style="opacity:1" fill="#323332" d="M 444.5,112.5 C 441.167,112.5 437.833,112.5 434.5,112.5C 434.5,109.167 434.5,105.833 434.5,102.5C 437.833,102.5 441.167,102.5 444.5,102.5C 444.5,105.833 444.5,109.167 444.5,112.5 Z"/></g>
<g><path style="opacity:1" fill="#353535" d="M 662.5,102.5 C 666.167,102.5 669.833,102.5 673.5,102.5C 673.5,108.167 673.5,113.833 673.5,119.5C 679.509,119.334 685.509,119.501 691.5,120C 694.333,121.5 696.5,123.667 698,126.5C 698.5,138.162 698.667,149.829 698.5,161.5C 694.833,161.5 691.167,161.5 687.5,161.5C 687.667,150.828 687.5,140.161 687,129.5C 682.599,128.533 678.099,128.2 673.5,128.5C 673.5,139.5 673.5,150.5 673.5,161.5C 669.833,161.5 666.167,161.5 662.5,161.5C 662.5,141.833 662.5,122.167 662.5,102.5 Z"/></g>
<g><path style="opacity:1" fill="#373737" d="M 705.5,101.5 C 709.167,101.5 712.833,101.5 716.5,101.5C 716.5,105.167 716.5,108.833 716.5,112.5C 712.833,112.5 709.167,112.5 705.5,112.5C 705.5,108.833 705.5,105.167 705.5,101.5 Z"/></g>
<g><path style="opacity:1" fill="#ea4f33" d="M 194.5,127.5 C 194.5,128.167 194.167,128.5 193.5,128.5C 193.244,126.063 192.577,123.729 191.5,121.5C 187.56,120.196 183.893,118.363 180.5,116C 178.963,114.89 178.297,113.39 178.5,111.5C 182.39,111.63 185.723,112.963 188.5,115.5C 188.811,116.478 189.478,117.145 190.5,117.5C 191.484,114.572 191.817,111.572 191.5,108.5C 191.504,106.158 192.337,104.158 194,102.5C 197.588,108.97 197.088,115.137 192.5,121C 193.669,123.007 194.335,125.173 194.5,127.5 Z"/></g>
<g><path style="opacity:1" fill="#fee7e3" d="M 137.5,104.5 C 138.968,106.64 140.635,108.806 142.5,111C 140.075,111.293 138.242,112.459 137,114.5C 135.921,112.606 134.587,112.273 133,113.5C 134.131,111.023 133.631,108.857 131.5,107C 134.051,106.998 136.051,106.164 137.5,104.5 Z"/></g>
<g><path style="opacity:1" fill="#fef1ef" d="M 107.5,105.5 C 109.296,106.794 111.296,107.794 113.5,108.5C 112.167,109.833 112.167,111.167 113.5,112.5C 111.807,113.228 110.307,114.228 109,115.5C 108.209,113.396 106.709,112.063 104.5,111.5C 106.978,110.278 107.978,108.278 107.5,105.5 Z"/></g>
<g><path style="opacity:1" fill="#333333" d="M 232.5,106.5 C 247.167,106.5 261.833,106.5 276.5,106.5C 276.5,109.833 276.5,113.167 276.5,116.5C 270.833,116.5 265.167,116.5 259.5,116.5C 259.5,131.5 259.5,146.5 259.5,161.5C 255.833,161.5 252.167,161.5 248.5,161.5C 248.5,146.833 248.5,132.167 248.5,117.5C 243.36,116.512 238.026,116.179 232.5,116.5C 232.5,113.167 232.5,109.833 232.5,106.5 Z"/></g>
<g><path style="opacity:1" fill="#333333" d="M 429.5,116.5 C 420.833,116.5 412.167,116.5 403.5,116.5C 403.5,121.167 403.5,125.833 403.5,130.5C 411.5,130.5 419.5,130.5 427.5,130.5C 427.5,133.833 427.5,137.167 427.5,140.5C 419.5,140.5 411.5,140.5 403.5,140.5C 403.5,147.5 403.5,154.5 403.5,161.5C 399.833,161.5 396.167,161.5 392.5,161.5C 392.5,143.167 392.5,124.833 392.5,106.5C 404.833,106.5 417.167,106.5 429.5,106.5C 429.5,109.833 429.5,113.167 429.5,116.5 Z"/></g>
<g><path style="opacity:1" fill="#393939" d="M 476.5,128.5 C 471.833,128.5 467.167,128.5 462.5,128.5C 462.175,136.019 462.508,143.352 463.5,150.5C 467.97,151.486 472.637,151.819 477.5,151.5C 478.109,155.563 476.775,158.73 473.5,161C 469.167,161.667 464.833,161.667 460.5,161C 456.027,159.86 453.193,157.027 452,152.5C 451.5,137.17 451.333,121.837 451.5,106.5C 455.167,106.5 458.833,106.5 462.5,106.5C 462.5,110.833 462.5,115.167 462.5,119.5C 467.167,119.5 471.833,119.5 476.5,119.5C 476.5,122.5 476.5,125.5 476.5,128.5 Z"/></g>
<g><path style="opacity:1" fill="#353535" d="M 504.5,106.5 C 513.839,106.334 523.173,106.5 532.5,107C 535.775,109.27 537.109,112.437 536.5,116.5C 527.494,116.334 518.494,116.5 509.5,117C 508.167,128.333 508.167,139.667 509.5,151C 518.494,151.5 527.494,151.666 536.5,151.5C 537.542,156.133 535.875,159.299 531.5,161C 522.833,161.667 514.167,161.667 505.5,161C 502.898,160.117 500.731,158.617 499,156.5C 497.385,142.235 497.052,127.902 498,113.5C 499.694,110.642 501.861,108.309 504.5,106.5 Z"/></g>
<g><path style="opacity:1" fill="#f4a090" d="M 55.5,105.5 C 56.3138,107.631 56.8138,109.964 57,112.5C 59.3981,108.598 59.8981,108.932 58.5,113.5C 57.3172,113.156 56.4839,113.822 56,115.5C 55.5017,112.183 55.335,108.85 55.5,105.5 Z"/></g>
<g><path style="opacity:1" fill="#fef3f1" d="M 145.5,113.5 C 147.435,114.15 149.435,114.483 151.5,114.5C 151.261,116.467 151.594,118.301 152.5,120C 150.324,120.163 148.491,120.996 147,122.5C 146.348,120.277 144.848,119.11 142.5,119C 144.607,117.736 145.607,115.903 145.5,113.5 Z"/></g>
<g><path style="opacity:1" fill="#f6ada0" d="M 186.5,108.5 C 188.136,109.749 189.303,111.416 190,113.5C 190.198,111.618 190.698,109.952 191.5,108.5C 191.817,111.572 191.484,114.572 190.5,117.5C 189.478,117.145 188.811,116.478 188.5,115.5C 188.938,115.565 189.272,115.399 189.5,115C 188.086,113.007 187.086,110.84 186.5,108.5 Z"/></g>
<g><path style="opacity:1" fill="#fef3f1" d="M 99.5,114.5 C 101.026,116.323 102.692,118.156 104.5,120C 103.207,120.49 101.873,120.657 100.5,120.5C 100.649,121.552 100.483,122.552 100,123.5C 98.2691,121.647 96.4358,120.981 94.5,121.5C 95.767,119.629 95.767,117.796 94.5,116C 96.3817,115.802 98.0484,115.302 99.5,114.5 Z"/></g>
<g><path style="opacity:1" fill="#ea5034" d="M 50.5,125.5 C 50.3433,126.873 50.51,128.207 51,129.5C 51.6667,126.833 52.3333,126.833 53,129.5C 53.4643,128.906 53.631,128.239 53.5,127.5C 55.34,125.832 57.34,124.332 59.5,123C 60.9437,122.219 62.277,122.386 63.5,123.5C 61.0494,128.452 57.2161,131.786 52,133.5C 51.5172,134.448 51.3505,135.448 51.5,136.5C 51.1667,136.5 50.8333,136.5 50.5,136.5C 49.3837,133.444 47.8837,130.444 46,127.5C 44.1443,123.407 44.1443,119.407 46,115.5C 48.8645,118.228 50.3645,121.562 50.5,125.5 Z"/></g>
<g><path style="opacity:1" fill="#b7b7b7" d="M 232.5,106.5 C 232.5,109.833 232.5,113.167 232.5,116.5C 238.026,116.179 243.36,116.512 248.5,117.5C 242.833,117.5 237.167,117.5 231.5,117.5C 231.185,113.629 231.518,109.962 232.5,106.5 Z"/></g>
<g><path style="opacity:1" fill="#a7a7a7" d="M 276.5,116.5 C 271.36,117.488 266.026,117.821 260.5,117.5C 260.829,132.343 260.496,147.01 259.5,161.5C 259.5,146.5 259.5,131.5 259.5,116.5C 265.167,116.5 270.833,116.5 276.5,116.5 Z"/></g>
<g><path style="opacity:1" fill="#363636" d="M 282.5,119.5 C 287.844,119.334 293.177,119.501 298.5,120C 301.649,121.933 302.982,124.766 302.5,128.5C 297.901,128.2 293.401,128.533 289,129.5C 288.5,140.161 288.333,150.828 288.5,161.5C 284.833,161.5 281.167,161.5 277.5,161.5C 277.333,149.162 277.5,136.829 278,124.5C 279.193,122.503 280.693,120.836 282.5,119.5 Z"/></g>
<g><path style="opacity:1" fill="#373737" d="M 305.5,119.5 C 309.167,119.5 312.833,119.5 316.5,119.5C 316.334,129.839 316.5,140.172 317,150.5C 321.401,151.467 325.901,151.8 330.5,151.5C 330.5,140.833 330.5,130.167 330.5,119.5C 334.167,119.5 337.833,119.5 341.5,119.5C 341.5,133.5 341.5,147.5 341.5,161.5C 332.494,161.666 323.494,161.5 314.5,161C 310,159.833 307.167,157 306,152.5C 305.5,141.505 305.333,130.505 305.5,119.5 Z"/></g>
<g><path style="opacity:1" fill="#363636" d="M 360.5,151.5 C 367.648,152.492 374.981,152.825 382.5,152.5C 382.5,154.167 382.5,155.833 382.5,157.5C 381.426,158.885 380.093,160.051 378.5,161C 371.167,161.667 363.833,161.667 356.5,161C 352.23,159.73 349.73,156.896 349,152.5C 348.333,143.833 348.333,135.167 349,126.5C 350.5,123.667 352.667,121.5 355.5,120C 363.605,119.066 371.605,119.399 379.5,121C 381.378,122.543 382.878,124.376 384,126.5C 384.499,132.491 384.666,138.491 384.5,144.5C 376.167,144.5 367.833,144.5 359.5,144.5C 359.298,146.95 359.631,149.283 360.5,151.5 Z"/></g>
<g><path style="opacity:1" fill="#737373" d="M 434.5,119.5 C 434.5,133.167 434.5,146.833 434.5,160.5C 437.833,160.5 441.167,160.5 444.5,160.5C 441.038,161.482 437.371,161.815 433.5,161.5C 433.171,147.323 433.504,133.323 434.5,119.5 Z"/></g>
<g><path style="opacity:1" fill="#333333" d="M 434.5,119.5 C 437.833,119.5 441.167,119.5 444.5,119.5C 444.5,133.167 444.5,146.833 444.5,160.5C 441.167,160.5 437.833,160.5 434.5,160.5C 434.5,146.833 434.5,133.167 434.5,119.5 Z"/></g>
<g><path style="opacity:1" fill="#383838" d="M 548.5,119.5 C 556.174,119.334 563.841,119.5 571.5,120C 573.624,121.122 575.457,122.622 577,124.5C 578.615,134.4 578.949,144.4 578,154.5C 576.332,158.165 573.499,160.332 569.5,161C 563.167,161.667 556.833,161.667 550.5,161C 546.359,159.526 543.526,156.693 542,152.5C 541.333,144.5 541.333,136.5 542,128.5C 542.873,124.475 545.039,121.475 548.5,119.5 Z"/></g>
<g><path style="opacity:1" fill="#353535" d="M 617.5,128.5 C 617.5,139.167 617.5,149.833 617.5,160.5C 608.833,160.5 600.167,160.5 591.5,160.5C 585.409,158.925 582.743,154.925 583.5,148.5C 583.165,141.786 586.165,137.786 592.5,136.5C 597.5,136.5 602.5,136.5 607.5,136.5C 607.802,133.941 607.468,131.607 606.5,129.5C 600.256,128.542 593.923,128.209 587.5,128.5C 588.113,120.592 592.446,117.592 600.5,119.5C 605.399,119.195 610.066,120.028 614.5,122C 616.451,123.734 617.451,125.901 617.5,128.5 Z"/></g>
<g><path style="opacity:1" fill="#363636" d="M 636.5,151.5 C 642.979,152.491 649.646,152.824 656.5,152.5C 656.5,154.167 656.5,155.833 656.5,157.5C 655.426,158.885 654.093,160.051 652.5,161C 646.167,161.667 639.833,161.667 633.5,161C 628.667,160.167 625.833,157.333 625,152.5C 624.333,144.167 624.333,135.833 625,127.5C 626.105,124.063 628.272,121.563 631.5,120C 638.833,119.333 646.167,119.333 653.5,120C 656.125,122.196 657.125,125.03 656.5,128.5C 649.578,128.188 642.744,128.521 636,129.5C 635.204,136.913 635.37,144.246 636.5,151.5 Z"/></g>
<g><path style="opacity:1" fill="#363636" d="M 705.5,119.5 C 709.167,119.5 712.833,119.5 716.5,119.5C 716.5,133.5 716.5,147.5 716.5,161.5C 712.833,161.5 709.167,161.5 705.5,161.5C 705.5,147.5 705.5,133.5 705.5,119.5 Z"/></g>
<g><path style="opacity:1" fill="#343434" d="M 759.5,128.5 C 759.5,139.167 759.5,149.833 759.5,160.5C 756.167,160.5 752.833,160.5 749.5,160.5C 749.828,149.986 749.494,139.653 748.5,129.5C 748.167,129.5 747.833,129.5 747.5,129.5C 743.366,128.515 739.032,128.182 734.5,128.5C 734.5,139.5 734.5,150.5 734.5,161.5C 731.167,161.5 727.833,161.5 724.5,161.5C 724.5,147.5 724.5,133.5 724.5,119.5C 733.506,119.334 742.506,119.5 751.5,120C 756.332,120.85 758.999,123.684 759.5,128.5 Z"/></g>
<g><path style="opacity:1" fill="#373737" d="M 773.5,119.5 C 783.167,119.5 792.833,119.5 802.5,119.5C 802.667,135.837 802.5,152.17 802,168.5C 800.5,172.667 797.667,175.5 793.5,177C 787.167,177.667 780.833,177.667 774.5,177C 770.125,175.299 768.458,172.133 769.5,167.5C 776.508,167.666 783.508,167.5 790.5,167C 791.406,165.301 791.739,163.467 791.5,161.5C 785.824,161.666 780.157,161.499 774.5,161C 771.063,159.895 768.563,157.728 767,154.5C 766.333,145.167 766.333,135.833 767,126.5C 768.694,123.642 770.861,121.309 773.5,119.5 Z"/></g>
<g><path style="opacity:1" fill="#f5a99b" d="M 50.5,125.5 C 51.1667,125.5 51.8333,125.5 52.5,125.5C 52.5,126.167 52.8333,126.5 53.5,126.5C 53.5,126.833 53.5,127.167 53.5,127.5C 53.631,128.239 53.4643,128.906 53,129.5C 52.3333,126.833 51.6667,126.833 51,129.5C 50.51,128.207 50.3433,126.873 50.5,125.5 Z"/></g>
<g><path style="opacity:1" fill="#f7f7f7" d="M 360.5,128.5 C 364.514,128.334 368.514,128.501 372.5,129C 373.423,131.041 373.756,133.208 373.5,135.5C 368.833,135.5 364.167,135.5 359.5,135.5C 359.298,133.05 359.631,130.717 360.5,128.5 Z"/></g>
<g><path style="opacity:1" fill="#cecece" d="M 429.5,116.5 C 421.35,117.493 413.017,117.826 404.5,117.5C 404.5,121.5 404.5,125.5 404.5,129.5C 412.352,129.175 420.018,129.508 427.5,130.5C 419.5,130.5 411.5,130.5 403.5,130.5C 403.5,125.833 403.5,121.167 403.5,116.5C 412.167,116.5 420.833,116.5 429.5,116.5 Z"/></g>
<g><path style="opacity:1" fill="#b7b7b7" d="M 476.5,128.5 C 472.366,129.485 468.032,129.818 463.5,129.5C 463.5,136.5 463.5,143.5 463.5,150.5C 462.508,143.352 462.175,136.019 462.5,128.5C 467.167,128.5 471.833,128.5 476.5,128.5 Z"/></g>
<g><path style="opacity:1" fill="#f7f7f7" d="M 554.5,128.5 C 558.767,128.203 562.934,128.536 567,129.5C 567.5,136.826 567.666,144.159 567.5,151.5C 562.57,151.803 557.737,151.469 553,150.5C 551.927,142.895 552.427,135.562 554.5,128.5 Z"/></g>
<g><path style="opacity:1" fill="#a3a3a3" d="M 747.5,129.5 C 743.5,129.5 739.5,129.5 735.5,129.5C 735.828,140.346 735.494,151.013 734.5,161.5C 734.5,150.5 734.5,139.5 734.5,128.5C 739.032,128.182 743.366,128.515 747.5,129.5 Z"/></g>
<g><path style="opacity:1" fill="#fafafa" d="M 778.5,128.5 C 782.833,128.5 787.167,128.5 791.5,128.5C 791.5,136.167 791.5,143.833 791.5,151.5C 786.833,151.5 782.167,151.5 777.5,151.5C 777.201,143.747 777.534,136.08 778.5,128.5 Z"/></g>
<g><path style="opacity:1" fill="#ea4f33" d="M 48.5,141.5 C 49.8333,145.5 51.1667,145.5 52.5,141.5C 53.7492,137.207 56.4158,135.541 60.5,136.5C 59.044,141.091 56.3774,144.758 52.5,147.5C 51.5344,149.396 51.2011,151.396 51.5,153.5C 51.5,154.167 51.1667,154.5 50.5,154.5C 50.6621,152.473 50.4955,150.473 50,148.5C 42.9669,144.587 40.8002,139.42 43.5,133C 46.0723,135.313 47.739,138.146 48.5,141.5 Z"/></g>
<g><path style="opacity:1" fill="#fef4f2" d="M 142.5,131.5 C 144.167,131.5 145.833,131.5 147.5,131.5C 147.5,142.167 147.5,152.833 147.5,163.5C 145.833,163.5 144.167,163.5 142.5,163.5C 142.5,159.167 142.5,154.833 142.5,150.5C 130.5,150.5 118.5,150.5 106.5,150.5C 106.5,154.5 106.5,158.5 106.5,162.5C 104.833,162.5 103.167,162.5 101.5,162.5C 101.5,152.5 101.5,142.5 101.5,132.5C 103.167,132.5 104.833,132.5 106.5,132.5C 106.5,136.833 106.5,141.167 106.5,145.5C 118.5,145.5 130.5,145.5 142.5,145.5C 142.5,140.833 142.5,136.167 142.5,131.5 Z"/></g>
<g><path style="opacity:1" fill="#e94d30" d="M 196.5,150.5 C 195.833,150.5 195.167,150.5 194.5,150.5C 190.066,147.306 187.399,142.973 186.5,137.5C 190.719,138.548 193.553,141.215 195,145.5C 195.498,142.183 195.665,138.85 195.5,135.5C 190.037,134.046 186.037,130.713 183.5,125.5C 185.074,124.369 186.741,124.202 188.5,125C 190.037,126.707 191.704,128.207 193.5,129.5C 193.369,130.239 193.536,130.906 194,131.5C 195.438,130.1 196.271,128.433 196.5,126.5C 200.68,115.525 202.513,115.858 202,127.5C 200.985,130.21 199.485,132.543 197.5,134.5C 196.341,138.122 196.175,141.789 197,145.5C 198.457,140.905 201.124,137.239 205,134.5C 205.566,141.703 202.733,147.036 196.5,150.5 Z"/></g>
<g><path style="opacity:1" fill="#f6b4a8" d="M 196.5,126.5 C 196.271,128.433 195.438,130.1 194,131.5C 193.536,130.906 193.369,130.239 193.5,129.5C 193.5,129.167 193.5,128.833 193.5,128.5C 194.167,128.5 194.5,128.167 194.5,127.5C 195.167,127.167 195.833,126.833 196.5,126.5 Z"/></g>
<g><path style="opacity:1" fill="#a1a1a1" d="M 606.5,129.5 C 607.468,131.607 607.802,133.941 607.5,136.5C 602.5,136.5 597.5,136.5 592.5,136.5C 596.97,135.514 601.637,135.181 606.5,135.5C 606.5,133.5 606.5,131.5 606.5,129.5 Z"/></g>
<g><path style="opacity:1" fill="#fef9f8" d="M 92.5,137.5 C 94.1667,137.5 95.8333,137.5 97.5,137.5C 97.5,144.167 97.5,150.833 97.5,157.5C 95.8333,157.5 94.1667,157.5 92.5,157.5C 92.5,155.167 92.5,152.833 92.5,150.5C 91.1667,150.5 89.8333,150.5 88.5,150.5C 88.5,148.833 88.5,147.167 88.5,145.5C 89.8333,145.5 91.1667,145.5 92.5,145.5C 92.5,142.833 92.5,140.167 92.5,137.5 Z"/></g>
<g><path style="opacity:1" fill="#fef5f4" d="M 150.5,136.5 C 152.167,136.5 153.833,136.5 155.5,136.5C 155.5,139.5 155.5,142.5 155.5,145.5C 156.833,145.5 158.167,145.5 159.5,145.5C 159.5,147.167 159.5,148.833 159.5,150.5C 158.167,150.5 156.833,150.5 155.5,150.5C 155.5,153.167 155.5,155.833 155.5,158.5C 153.833,158.5 152.167,158.5 150.5,158.5C 150.5,151.167 150.5,143.833 150.5,136.5 Z"/></g>
<g><path style="opacity:1" fill="#777777" d="M 617.5,128.5 C 618.495,139.321 618.828,150.321 618.5,161.5C 609.318,161.827 600.318,161.493 591.5,160.5C 600.167,160.5 608.833,160.5 617.5,160.5C 617.5,149.833 617.5,139.167 617.5,128.5 Z"/></g>
<g><path style="opacity:1" fill="#f4a192" d="M 50.5,136.5 C 50.8333,136.5 51.1667,136.5 51.5,136.5C 51.2155,138.415 51.5489,140.081 52.5,141.5C 51.1667,145.5 49.8333,145.5 48.5,141.5C 49.1667,139.833 49.8333,138.167 50.5,136.5 Z"/></g>
<g><path style="opacity:1" fill="#f8f8f8" d="M 595.5,144.5 C 599.5,144.5 603.5,144.5 607.5,144.5C 607.5,146.833 607.5,149.167 607.5,151.5C 603.167,151.5 598.833,151.5 594.5,151.5C 594.298,149.05 594.631,146.717 595.5,144.5 Z"/></g>
<g><path style="opacity:1" fill="#919191" d="M 759.5,128.5 C 760.495,139.321 760.828,150.321 760.5,161.5C 756.5,161.5 752.5,161.5 748.5,161.5C 748.5,150.833 748.5,140.167 748.5,129.5C 749.494,139.653 749.828,149.986 749.5,160.5C 752.833,160.5 756.167,160.5 759.5,160.5C 759.5,149.833 759.5,139.167 759.5,128.5 Z"/></g>
<g><path style="opacity:1" fill="#e94d30" d="M 53.5,163.5 C 53.1667,163.5 52.8333,163.5 52.5,163.5C 45.5882,161.272 42.2549,156.606 42.5,149.5C 45.8553,150.855 48.1886,153.189 49.5,156.5C 50.281,158.322 51.4477,158.989 53,158.5C 53.4828,157.552 53.6495,156.552 53.5,155.5C 54.3535,151.809 56.5201,149.142 60,147.5C 59.7542,153.652 57.5875,158.986 53.5,163.5 Z"/></g>
<g><path style="opacity:1" fill="#e94d30" d="M 192.5,160.5 C 193.5,163.167 194.5,163.167 195.5,160.5C 197.145,156.855 199.812,154.188 203.5,152.5C 204.247,157.191 202.581,161.025 198.5,164C 195.981,164.586 193.981,165.753 192.5,167.5C 192.167,167.5 191.833,167.5 191.5,167.5C 189.166,163.34 187.499,158.84 186.5,154C 186.538,150.112 187.704,149.612 190,152.5C 192.023,154.769 192.856,157.436 192.5,160.5 Z"/></g>
<g><path style="opacity:1" fill="#f28c79" d="M 194.5,150.5 C 195.167,150.5 195.833,150.5 196.5,150.5C 195.941,153.516 195.275,156.516 194.5,159.5C 194.624,160.107 194.957,160.44 195.5,160.5C 194.5,163.167 193.5,163.167 192.5,160.5C 194.011,157.456 194.678,154.122 194.5,150.5 Z"/></g>
<g><path style="opacity:1" fill="#6d6d6d" d="M 360.5,151.5 C 368.167,151.5 375.833,151.5 383.5,151.5C 383.795,153.735 383.461,155.735 382.5,157.5C 382.5,155.833 382.5,154.167 382.5,152.5C 374.981,152.825 367.648,152.492 360.5,151.5 Z"/></g>
<g><path style="opacity:1" fill="#6c6c6c" d="M 636.5,151.5 C 643.5,151.5 650.5,151.5 657.5,151.5C 657.795,153.735 657.461,155.735 656.5,157.5C 656.5,155.833 656.5,154.167 656.5,152.5C 649.646,152.824 642.979,152.491 636.5,151.5 Z"/></g>
<g><path style="opacity:1" fill="#f5a697" d="M 51.5,153.5 C 52.1667,154.167 52.8333,154.833 53.5,155.5C 53.6495,156.552 53.4828,157.552 53,158.5C 51.4477,158.989 50.281,158.322 49.5,156.5C 50.3382,156.158 50.6716,155.492 50.5,154.5C 51.1667,154.5 51.5,154.167 51.5,153.5 Z"/></g>
<g><path style="opacity:1" fill="#e94c2f" d="M 55.5,172.5 C 55.81,173.738 56.31,173.738 57,172.5C 57.4935,170.866 57.6602,169.199 57.5,167.5C 57.542,164.415 58.8753,162.081 61.5,160.5C 62.941,165.365 62.441,170.031 60,174.5C 57.0316,176.991 53.8649,177.157 50.5,175C 47.4024,172.572 45.069,169.572 43.5,166C 45.5527,165.675 47.5527,166.009 49.5,167C 51.3702,169.04 53.3702,170.873 55.5,172.5 Z"/></g>
<g><path style="opacity:1" fill="#ea5033" d="M 187.5,169.5 C 187.338,171.527 187.505,173.527 188,175.5C 188.278,174.584 188.778,173.918 189.5,173.5C 189.369,174.239 189.536,174.906 190,175.5C 192.514,171.984 195.848,169.65 200,168.5C 201.257,168.85 201.591,169.517 201,170.5C 197.777,176.897 192.61,180.23 185.5,180.5C 183.89,176.33 182.89,171.997 182.5,167.5C 182.571,161.276 184.071,160.943 187,166.5C 187.483,167.448 187.649,168.448 187.5,169.5 Z"/></g>
<g><path style="opacity:1" fill="#f38e7a" d="M 52.5,163.5 C 52.8333,163.5 53.1667,163.5 53.5,163.5C 54.6005,165.277 55.4338,167.277 56,169.5C 56.2784,168.584 56.7784,167.918 57.5,167.5C 57.6602,169.199 57.4935,170.866 57,172.5C 56.31,173.738 55.81,173.738 55.5,172.5C 54.3024,169.574 53.3024,166.574 52.5,163.5 Z"/></g>
<g><path style="opacity:1" fill="#feeeeb" d="M 123.5,168.5 C 125.011,169.958 126.011,171.791 126.5,174C 128.167,174.333 129.833,174.667 131.5,175C 129.939,175.941 128.605,177.108 127.5,178.5C 128.548,180.456 129.048,182.456 129,184.5C 126.263,180.307 123.43,179.973 120.5,183.5C 119.453,182.078 119.453,180.578 120.5,179C 119.899,177.395 118.899,176.062 117.5,175C 119.134,174.506 120.801,174.34 122.5,174.5C 122.833,172.5 123.167,170.5 123.5,168.5 Z"/></g>
<g><path style="opacity:1" fill="#f38f7c" d="M 191.5,167.5 C 191.833,167.5 192.167,167.5 192.5,167.5C 191.87,169.75 190.87,171.75 189.5,173.5C 188.778,173.918 188.278,174.584 188,175.5C 187.505,173.527 187.338,171.527 187.5,169.5C 188.268,170.263 188.768,171.263 189,172.5C 189.757,170.685 190.59,169.019 191.5,167.5 Z"/></g>
<g><path style="opacity:1" fill="#ea5337" d="M 68.5,191.5 C 65.4725,189.86 62.1391,189.026 58.5,189C 54.5565,187.39 51.5565,184.723 49.5,181C 54.2672,180.701 58.4339,182.201 62,185.5C 62.4643,184.906 62.631,184.239 62.5,183.5C 63.3138,181.369 63.8138,179.036 64,176.5C 64.5831,174.998 65.4164,173.665 66.5,172.5C 66.8333,172.833 67.1667,173.167 67.5,173.5C 68.1884,179.524 68.5217,185.524 68.5,191.5 Z"/></g>
<g><path style="opacity:1" fill="#e94b2e" d="M 180.5,179.5 C 180.681,182.397 180.348,185.23 179.5,188C 180.632,189.791 181.632,189.625 182.5,187.5C 185.821,184.78 189.488,184.113 193.5,185.5C 189.894,190.707 184.894,193.04 178.5,192.5C 178.5,191.833 178.167,191.5 177.5,191.5C 174.753,185.786 174.919,180.119 178,174.5C 179.372,175.91 180.205,177.577 180.5,179.5 Z"/></g>
<g><path style="opacity:1" fill="#f0806a" d="M 62.5,183.5 C 60.9153,182.998 60.4153,181.998 61,180.5C 62.0386,181.244 62.5386,182.244 62.5,183.5 Z"/></g>
<g><path style="opacity:1" fill="#f28e7b" d="M 185.5,180.5 C 185.573,182.027 184.906,183.027 183.5,183.5C 183.427,181.973 184.094,180.973 185.5,180.5 Z"/></g>
<g><path style="opacity:1" fill="#eb5539" d="M 83.5,204.5 C 80.6277,203.474 78.1277,201.808 76,199.5C 69.5428,202.541 64.0428,201.207 59.5,195.5C 63.1747,194.317 66.8414,194.317 70.5,195.5C 71.5426,197.852 72.8759,198.019 74.5,196C 73.9341,195.005 73.2674,194.172 72.5,193.5C 70.7359,189.756 71.2359,186.423 74,183.5C 75.5272,185.221 76.5272,187.221 77,189.5C 77.3333,192.833 77.6667,196.167 78,199.5C 80.1906,200.833 82.024,202.5 83.5,204.5 Z"/></g>
<g><path style="opacity:1" fill="#f8ad9e" d="M 180.5,179.5 C 181.302,180.952 181.802,182.618 182,184.5C 182.383,183.944 182.883,183.611 183.5,183.5C 183.489,185.017 182.823,186.184 181.5,187C 181.728,187.399 182.062,187.565 182.5,187.5C 181.632,189.625 180.632,189.791 179.5,188C 180.348,185.23 180.681,182.397 180.5,179.5 Z"/></g>
<g><path style="opacity:1" fill="#e94a2d" d="M 170.5,196.5 C 168.912,197.635 168.579,198.969 169.5,200.5C 170.739,200.058 171.739,199.391 172.5,198.5C 176.178,197.414 179.845,197.414 183.5,198.5C 178.397,203.373 172.397,204.707 165.5,202.5C 164.775,196.725 165.941,191.392 169,186.5C 169.667,185.167 170.333,185.167 171,186.5C 171.659,189.888 171.492,193.221 170.5,196.5 Z"/></g>
<g><path style="opacity:1" fill="#e94c30" d="M 88.5,201.5 C 88.702,203.95 88.3686,206.283 87.5,208.5C 81.6472,211.264 75.9805,210.764 70.5,207C 74.8379,205.894 79.1712,205.061 83.5,204.5C 84.0431,204.44 84.3764,204.107 84.5,203.5C 81.5617,200.017 81.0617,196.35 83,192.5C 85.8598,194.889 87.6932,197.889 88.5,201.5 Z"/></g>
<g><path style="opacity:1" fill="#f3917d" d="M 177.5,191.5 C 178.167,191.5 178.5,191.833 178.5,192.5C 176.167,194.167 174.167,196.167 172.5,198.5C 171.739,199.391 170.739,200.058 169.5,200.5C 168.579,198.969 168.912,197.635 170.5,196.5C 170.435,196.938 170.601,197.272 171,197.5C 173.037,195.294 175.203,193.294 177.5,191.5 Z"/></g>
<g><path style="opacity:1" fill="#f7a696" d="M 68.5,191.5 C 69.7942,192.29 70.9609,193.29 72,194.5C 72.3988,194.272 72.5654,193.938 72.5,193.5C 73.2674,194.172 73.9341,195.005 74.5,196C 72.8759,198.019 71.5426,197.852 70.5,195.5C 69.3995,194.395 68.7329,193.062 68.5,191.5 Z"/></g>
<g><path style="opacity:1" fill="#e94f32" d="M 158.5,205.5 C 157.522,205.811 156.855,206.478 156.5,207.5C 157.958,208.782 159.292,208.782 160.5,207.5C 174.233,208.513 174.566,210.179 161.5,212.5C 158.591,212.615 155.925,211.949 153.5,210.5C 153.5,208.833 153.5,207.167 153.5,205.5C 154.572,201.244 156.739,197.578 160,194.5C 161.592,198.302 161.092,201.969 158.5,205.5 Z"/></g>
<g><path style="opacity:1" fill="#f4927f" d="M 165.5,202.5 C 165.027,203.906 164.027,204.573 162.5,204.5C 162.973,203.094 163.973,202.427 165.5,202.5 Z"/></g>
<g><path style="opacity:1" fill="#f49a89" d="M 162.5,204.5 C 161.942,205.79 160.942,206.623 159.5,207C 159.728,207.399 160.062,207.565 160.5,207.5C 159.292,208.782 157.958,208.782 156.5,207.5C 156.855,206.478 157.522,205.811 158.5,205.5C 159.833,205.167 161.167,204.833 162.5,204.5 Z"/></g>
<g><path style="opacity:1" fill="#f1846f" d="M 88.5,201.5 C 89.1646,203.369 89.8313,205.369 90.5,207.5C 94.1264,209.098 97.7931,210.598 101.5,212C 96.7644,211.371 92.0977,210.204 87.5,208.5C 88.3686,206.283 88.702,203.95 88.5,201.5 Z"/></g>
<g><path style="opacity:1" fill="#f39382" d="M 153.5,205.5 C 153.5,207.167 153.5,208.833 153.5,210.5C 148.928,212.085 144.262,212.919 139.5,213C 143.823,211.724 148.156,210.558 152.5,209.5C 152.232,207.901 152.566,206.568 153.5,205.5 Z"/></g>
<g><path style="opacity:1" fill="#f49c8b" d="M 102.5,213.5 C 104.185,212.156 105.852,212.323 107.5,214C 105.893,213.981 104.226,213.815 102.5,213.5 Z"/></g>
</svg>
